<svg width="361" height="414" viewBox="0 0 361 414" fill="none" xmlns="http://www.w3.org/2000/svg">
<rect width="361" height="414" fill="white"/>
<ellipse cx="100" cy="143" rx="22" ry="27" fill="black"/>
<ellipse cx="180" cy="143" rx="22" ry="27" fill="black"/>
<ellipse cx="260.5" cy="143" rx="22.5" ry="27" fill="black"/>
<path d="M124.284 321.818L133.602 343.125H134.057L150.42 321.818H162.722L140.023 350.909L153.347 380H141.33L131.898 358.835H131.443L114.966 380H102.608L125.875 350.909L112.494 321.818H124.284Z" fill="black"/>
<path fill-rule="evenodd" clip-rule="evenodd" d="M310.226 143.108C310.226 187.64 260.593 237.217 180.613 237.217C100.633 237.217 51 187.64 51 143.108C51 98.5767 100.633 49 180.613 49C260.593 49 310.226 98.5767 310.226 143.108ZM345.226 143.108C345.226 214.413 271.526 272.217 180.613 272.217C177.796 272.217 174.996 272.161 172.214 272.052L135.395 312.964L129.806 301.518L56.8508 228.239C31.4187 205.513 16 175.723 16 143.108C16 71.8038 89.6997 14 180.613 14C271.526 14 345.226 71.8038 345.226 143.108Z" fill="black"/>
<path d="M207.783 229.794L213.85 233.987L189.04 272.751L183.138 274.368L166.614 278.893L207.783 229.794Z" fill="#FFFDFD"/>
<line y1="-4.75" x2="120" y2="-4.75" transform="matrix(-0.601815 0.798636 -0.855502 -0.517799 207.225 246.687)" stroke="black" stroke-width="9.5"/>
</svg>

