<svg width="372" height="415" viewBox="0 0 372 415" fill="none" xmlns="http://www.w3.org/2000/svg">
<ellipse cx="186" cy="162" rx="186" ry="162" fill="url(#paint0_radial_81_33)" fill-opacity="0.8"/>
<ellipse cx="113.5" cy="162" rx="23.5" ry="32" fill="#EBEBEB"/>
<ellipse cx="185.5" cy="162" rx="23.5" ry="32" fill="#EBEBEB"/>
<ellipse cx="257.5" cy="162" rx="23.5" ry="32" fill="#EBEBEB"/>
<path d="M130.284 337.818L139.602 359.125H140.057L156.42 337.818H168.722L146.023 366.909L159.347 396H147.33L137.898 374.835H137.443L120.966 396H108.608L131.875 366.909L118.494 337.818H130.284ZM221.932 367.591C220.909 373.765 218.892 379.03 215.881 383.386C212.888 387.723 209.233 391.047 204.915 393.358C200.616 395.65 195.985 396.795 191.023 396.795C185.814 396.795 181.345 395.583 177.614 393.159C173.883 390.716 171.193 387.222 169.545 382.676C167.917 378.131 167.633 372.676 168.693 366.312C169.716 360.157 171.723 354.892 174.716 350.517C177.708 346.142 181.373 342.799 185.71 340.489C190.047 338.178 194.725 337.023 199.744 337.023C204.915 337.023 209.347 338.244 213.04 340.688C216.752 343.112 219.422 346.606 221.051 351.17C222.699 355.735 222.992 361.208 221.932 367.591ZM211.562 366.312C212.263 362.013 212.197 358.386 211.364 355.432C210.549 352.477 209.1 350.252 207.017 348.756C204.934 347.241 202.367 346.483 199.318 346.483C196.023 346.483 192.973 347.307 190.17 348.955C187.386 350.583 185.019 352.97 183.068 356.114C181.136 359.258 179.811 363.083 179.091 367.591C178.333 371.909 178.381 375.536 179.233 378.472C180.085 381.407 181.562 383.623 183.665 385.119C185.767 386.597 188.333 387.335 191.364 387.335C194.64 387.335 197.67 386.521 200.455 384.892C203.239 383.263 205.597 380.886 207.528 377.761C209.479 374.636 210.824 370.82 211.562 366.312ZM265.732 354.097C265.807 351.464 265.002 349.447 263.317 348.045C261.65 346.644 259.254 345.943 256.129 345.943C253.932 345.943 251.991 346.275 250.305 346.938C248.639 347.581 247.294 348.481 246.271 349.636C245.249 350.773 244.614 352.07 244.368 353.528C244.16 354.722 244.264 355.763 244.68 356.653C245.097 357.544 245.732 358.301 246.584 358.926C247.455 359.551 248.44 360.072 249.538 360.489C250.656 360.905 251.792 361.256 252.947 361.54L258.175 362.903C260.258 363.415 262.247 364.106 264.141 364.977C266.035 365.83 267.673 366.928 269.055 368.273C270.457 369.598 271.48 371.199 272.124 373.074C272.768 374.949 272.872 377.146 272.436 379.665C271.868 383.074 270.495 386.076 268.317 388.67C266.158 391.246 263.317 393.263 259.794 394.722C256.29 396.161 252.209 396.881 247.55 396.881C243.042 396.881 239.235 396.18 236.129 394.778C233.023 393.358 230.75 391.303 229.311 388.614C227.891 385.924 227.436 382.657 227.947 378.812H238.317C238.108 380.839 238.44 382.525 239.311 383.869C240.201 385.214 241.48 386.218 243.146 386.881C244.813 387.544 246.745 387.875 248.942 387.875C251.233 387.875 253.307 387.534 255.163 386.852C257.019 386.152 258.535 385.186 259.709 383.955C260.902 382.705 261.631 381.246 261.896 379.58C262.161 378.083 261.944 376.833 261.243 375.83C260.542 374.826 259.453 373.992 257.976 373.33C256.518 372.648 254.775 372.042 252.749 371.511L246.442 369.807C241.877 368.557 238.411 366.682 236.044 364.182C233.696 361.682 232.862 358.348 233.544 354.182C234.112 350.735 235.542 347.733 237.834 345.176C240.125 342.6 242.995 340.602 246.442 339.182C249.889 337.742 253.658 337.023 257.749 337.023C261.877 337.023 265.372 337.742 268.232 339.182C271.11 340.621 273.213 342.629 274.538 345.205C275.883 347.761 276.328 350.725 275.874 354.097H265.732ZM284.759 346.653L286.236 337.818H332.656L331.179 346.653H313.196L305.014 396H294.56L302.741 346.653H284.759Z" fill="#EBEBEB"/>
<path fill-rule="evenodd" clip-rule="evenodd" d="M197.43 266.591C193.684 266.861 189.872 267 186 267C111.139 267 59 215.137 59 161C59 106.863 111.139 55 186 55C260.861 55 313 106.863 313 161C313 209.884 270.489 256.914 207.124 265.58L208 264.5L197.43 266.591ZM64.2038 253.972C39.1745 229.153 24 196.619 24 161C24 83.1278 96.5299 20 186 20C275.47 20 348 83.1278 348 161C348 238.872 275.47 302 186 302C183.228 302 180.472 301.939 177.735 301.82L141.5 346.5L136 334L64.2038 253.972Z" fill="#EBEBEB"/>
<path d="M210.5 259.5L216.5 264L192.765 304.561L187.009 306.189L170.894 310.748L210.5 259.5Z" fill="#1E0C04"/>
<line x1="219.631" y1="266.975" x2="141.703" y2="363.975" stroke="#EBEBEB" stroke-width="9.5"/>
<defs>
<radialGradient id="paint0_radial_81_33" cx="0" cy="0" r="1" gradientUnits="userSpaceOnUse" gradientTransform="translate(186 162) rotate(90) scale(383 897.375)">
<stop/>
<stop offset="1" stop-color="#632A00"/>
</radialGradient>
</defs>
</svg>
